<svg width="311" height="92" viewBox="0 0 311 92" fill="none" xmlns="http://www.w3.org/2000/svg">
<path d="M37.0228 91.2228C35.3941 91.2228 33.8623 90.6199 32.7068 89.5249C19.2446 77.866 8.94849 62.9991 2.96368 46.5615C1.66071 42.9614 1 39.1877 1 35.3452C1.00077 16.4062 17.1596 1 37.023 1C56.8871 1 73.0459 16.4077 73.0459 35.3452C73.0459 39.1862 72.3837 42.9607 71.0822 46.5602C65.0952 63.003 54.7981 77.8714 41.3057 89.5573C40.1825 90.6223 38.6521 91.2252 37.0227 91.2252L37.0228 91.2228ZM37.0228 2.8884C18.2526 2.8884 2.98236 17.4472 2.98236 35.3434C2.98236 38.9765 3.60696 42.5423 4.83695 45.9423C10.7126 62.0824 20.8213 76.6816 34.0707 88.1575C34.8843 88.9266 35.9214 89.3346 37.0224 89.3346C38.1233 89.3346 39.1596 88.9266 39.9402 88.1868C53.2227 76.6818 63.3308 62.0847 69.2074 45.9397C70.4382 42.5395 71.0635 38.9745 71.0635 35.3429C71.0635 17.4469 55.7921 2.88788 37.0231 2.88788L37.0228 2.8884Z" fill="#3C38F3" stroke="black" stroke-width="0.390625"/>
<path d="M37.0229 63.2171C20.8294 63.2171 7.65341 50.6574 7.65341 35.2175C7.65264 19.7783 20.8283 7.21777 37.0229 7.21777C53.2163 7.21777 66.3903 19.779 66.3903 35.2175C66.3903 50.6559 53.2155 63.2171 37.0229 63.2171ZM37.0229 9.10792C21.9212 9.10792 9.63589 20.8218 9.63589 35.2193C9.63589 49.6169 21.922 61.3289 37.0229 61.3289C52.1237 61.3289 64.4098 49.6173 64.4098 35.2193C64.4098 20.821 52.1237 9.10979 37.0229 9.10979V9.10792Z" fill="#3C38F3" stroke="black" stroke-width="0.390625"/>
<path d="M31.0636 55.0306C30.4437 55.0306 29.8797 54.7852 29.5171 54.3552C29.1215 53.8857 28.9932 53.236 29.1553 52.5262L32.2505 39.1066L21.0517 39.0524L17.7904 43.8874C17.5584 44.231 17.1197 44.3921 16.7056 44.2896C16.2908 44.1855 15.9935 43.8391 15.9674 43.4311L15.5901 37.3149C15.0785 36.6535 14.5507 35.8229 14.5507 35.2165C14.5507 34.61 15.0785 33.7793 15.5901 33.118L15.9674 27.0018C15.9919 26.5938 16.29 26.2466 16.7056 26.1434C17.1197 26.0401 17.5584 26.2027 17.7904 26.5455L21.0517 31.3805L32.2505 31.3263L29.1561 17.9074C28.9924 17.1969 29.1215 16.5472 29.5164 16.0777C29.879 15.6477 30.4429 15.4023 31.0629 15.4023C31.9863 15.4023 32.8645 15.9136 33.3545 16.7362L36.7187 22.9741H39.1425C39.6803 22.9741 40.1197 23.3828 40.1335 23.8955L40.195 26.2175C40.2119 26.2856 40.2188 26.3567 40.2188 26.4299C40.2188 26.9514 39.7755 27.3748 39.2278 27.3748H39.2078H39.1294L41.3872 31.5112L52.9665 31.5119C56.1156 31.5119 59.4866 33.0011 59.4866 35.2184C59.4866 37.4355 56.1154 38.9248 52.9665 38.9248H41.388L39.1302 43.0612H39.2086C39.4759 43.0612 39.731 43.1644 39.9177 43.3468C40.1051 43.5292 40.2058 43.7761 40.1989 44.0295L40.1336 46.5397C40.1197 47.0518 39.6811 47.4612 39.1425 47.4612H36.7187L33.3752 53.6631C32.8651 54.5208 31.987 55.0313 31.0635 55.0313L31.0636 55.0306ZM20.5138 37.161H20.5184L33.4868 37.2233C33.7864 37.224 34.0683 37.3559 34.2558 37.5778C34.4432 37.8005 34.5147 38.092 34.4502 38.3703C34.4502 38.3703 31.066 53.0968 31.0683 53.1401C31.2335 53.1379 31.4793 53.02 31.633 52.7629L35.2331 46.0827C35.4029 45.7684 35.7433 45.5699 36.1151 45.5699H38.177L38.1939 44.9495H37.4987C37.1522 44.9495 36.8311 44.7767 36.6513 44.4954C36.4723 44.2141 36.46 43.8625 36.6198 43.5695L39.9101 37.5441C40.0807 37.2314 40.4195 37.0358 40.789 37.0358H52.9667C55.6335 37.0358 57.5048 35.8565 57.5048 35.2192C57.5048 34.5813 55.6333 33.4027 52.9667 33.4027L40.7875 33.402C40.4179 33.402 40.0791 33.2057 39.9086 32.8936L36.6182 26.8682C36.4576 26.5752 36.4707 26.2236 36.6497 25.9424C36.8287 25.6611 37.1498 25.4882 37.4971 25.4882H38.1924L38.1755 24.8678H36.1135C35.7417 24.8678 35.4021 24.6701 35.2316 24.3551L31.6124 17.6398C31.4779 17.4157 31.2305 17.2977 31.0654 17.297C31.0654 17.319 34.4503 32.0675 34.4503 32.0675C34.5149 32.3459 34.4434 32.6381 34.256 32.8601C34.07 33.0828 33.7866 33.2131 33.4869 33.2146L20.5186 33.2769H20.514C20.1767 33.2769 19.8633 33.1135 19.6804 32.8432L17.7698 30.0093L17.5531 33.5164C17.5416 33.7061 17.4701 33.8885 17.348 34.0387C17.013 34.4525 16.6673 34.9711 16.5582 35.2187C16.6681 35.4663 17.013 35.9849 17.348 36.3987C17.4701 36.5489 17.5416 36.7313 17.5531 36.921L17.7698 40.4288L19.6804 37.5949C19.8625 37.3247 20.1767 37.1613 20.514 37.1613L20.5138 37.161Z" fill="#3C38F3" stroke="black" stroke-width="0.390625"/>
<path d="M101.57 25.2949H103.838C104.654 25.3669 105.338 25.5109 105.89 25.7269L106.142 25.7989L106.79 25.5469L107.438 25.2589H107.834C108.098 25.2589 108.266 25.2829 108.338 25.3309C108.482 25.4269 108.566 25.6669 108.59 26.0509C108.59 26.2669 108.59 26.7829 108.59 27.5989C108.59 28.9669 108.506 29.7109 108.338 29.8309C108.242 29.8789 107.894 29.9029 107.294 29.9029C106.694 29.9029 106.346 29.8789 106.25 29.8309C106.082 29.7109 105.998 29.5549 105.998 29.3629C105.998 28.6189 105.65 28.0789 104.954 27.7429C104.378 27.4549 103.598 27.3109 102.614 27.3109C101.678 27.3109 100.946 27.4189 100.418 27.6349C99.794 27.8989 99.482 28.3429 99.482 28.9669C99.482 29.0629 99.506 29.1709 99.554 29.2909C99.626 29.6029 99.89 29.8669 100.346 30.0829C100.682 30.2749 101.534 30.5029 102.902 30.7669C104.15 30.9829 105.026 31.1629 105.53 31.3069C106.97 31.8109 108.062 32.6029 108.806 33.6829C109.142 34.2349 109.382 34.7749 109.526 35.3029C109.574 35.5429 109.598 35.9029 109.598 36.3829C109.598 36.8869 109.574 37.2589 109.526 37.4989C109.214 39.1789 108.302 40.3669 106.79 41.0629C106.142 41.3749 105.338 41.5909 104.378 41.7109C104.21 41.7349 103.73 41.7469 102.938 41.7469C102.074 41.7469 101.306 41.6749 100.634 41.5309C100.202 41.4109 99.782 41.2549 99.374 41.0629L98.978 40.8829L98.114 41.3149L97.214 41.7829H96.854C96.566 41.7829 96.386 41.7589 96.314 41.7109C96.17 41.6389 96.086 41.4229 96.062 41.0629C96.062 40.8229 96.062 40.1389 96.062 39.0109C96.062 37.3549 96.134 36.4669 96.278 36.3469C96.398 36.2749 96.746 36.2389 97.322 36.2389C97.946 36.2389 98.306 36.2629 98.402 36.3109C98.474 36.3589 98.594 36.5749 98.762 36.9589C99.218 38.2789 100.106 39.0949 101.426 39.4069C102.506 39.6949 103.61 39.6829 104.738 39.3709C105.578 39.0829 106.058 38.5909 106.178 37.8949C106.322 37.0309 105.878 36.3829 104.846 35.9509C104.462 35.7829 103.718 35.6029 102.614 35.4109C101.51 35.2189 100.898 35.0989 100.778 35.0509C98.522 34.5229 97.046 33.4429 96.35 31.8109C96.278 31.6189 96.218 31.4269 96.17 31.2349C96.122 31.0189 96.098 30.6829 96.098 30.2269C96.098 29.7709 96.11 29.4709 96.134 29.3269C96.446 27.8149 97.274 26.7229 98.618 26.0509C99.434 25.6189 100.418 25.3669 101.57 25.2949ZM119.142 25.2949L122.094 25.3309C125.238 25.6909 127.242 26.8789 128.106 28.8949C128.202 29.1109 128.274 29.3269 128.322 29.5429L128.43 29.9389L128.466 34.2589C128.466 37.0669 128.49 38.5189 128.538 38.6149C128.73 38.8069 129.246 38.9269 130.086 38.9749C130.47 38.9749 130.746 39.0229 130.914 39.1189C131.058 39.2629 131.13 39.6469 131.13 40.2709C131.13 40.8949 131.046 41.2789 130.878 41.4229C130.638 41.5189 129.87 41.5669 128.574 41.5669C127.134 41.5429 126.186 41.4589 125.73 41.3149C124.986 41.0749 124.506 40.7029 124.29 40.1989C124.194 40.0069 124.146 39.8989 124.146 39.8749C124.146 39.8509 124.038 39.9109 123.822 40.0549C122.766 40.8949 121.35 41.4469 119.574 41.7109C118.638 41.8069 117.906 41.8189 117.378 41.7469C115.218 41.5069 113.694 40.6189 112.806 39.0829C112.59 38.7229 112.434 38.3509 112.338 37.9669C112.266 37.7029 112.23 37.3669 112.23 36.9589C112.23 36.3829 112.326 35.8909 112.518 35.4829C112.806 34.9069 113.202 34.4149 113.706 34.0069C114.546 33.3589 115.614 32.8549 116.91 32.4949C118.494 32.0149 120.378 31.7269 122.562 31.6309L123.462 31.5949V30.9469L123.426 30.0109V29.9749C123.282 28.9669 122.79 28.2589 121.95 27.8509C121.422 27.5869 120.738 27.4549 119.898 27.4549C118.914 27.4549 118.398 27.4789 118.35 27.5269L118.458 27.7429C118.65 28.0789 118.734 28.5109 118.71 29.0389C118.71 29.4229 118.686 29.6989 118.638 29.8669C118.494 30.2989 118.278 30.6589 117.99 30.9469C117.678 31.2589 117.306 31.4869 116.874 31.6309C116.682 31.6789 116.406 31.7029 116.046 31.7029C115.686 31.7029 115.422 31.6789 115.254 31.6309C114.798 31.4869 114.414 31.2589 114.102 30.9469C113.814 30.6589 113.598 30.2989 113.454 29.8669C113.406 29.6989 113.382 29.4229 113.382 29.0389C113.382 28.6549 113.406 28.3789 113.454 28.2109C113.814 26.8909 114.978 26.0149 116.946 25.5829C117.594 25.4389 118.326 25.3429 119.142 25.2949ZM123.462 35.4829C123.462 34.2349 123.45 33.6109 123.426 33.6109C123.402 33.6109 123.342 33.6229 123.246 33.6469C121.83 33.7429 120.594 33.9949 119.538 34.4029C118.41 34.8589 117.702 35.4949 117.414 36.3109C117.294 36.6469 117.282 37.0789 117.378 37.6069C117.618 38.5669 118.17 39.1909 119.034 39.4789C119.082 39.5029 119.142 39.5269 119.214 39.5509C120.102 39.6949 121.038 39.5149 122.022 39.0109C122.094 38.9869 122.166 38.9509 122.238 38.9029C122.694 38.6149 123.018 38.2909 123.21 37.9309C123.354 37.6429 123.438 37.1629 123.462 36.4909V35.4829ZM138.027 25.2949H140.295C141.111 25.3669 141.795 25.5109 142.347 25.7269L142.599 25.7989L143.247 25.5469L143.895 25.2589H144.291C144.555 25.2589 144.723 25.2829 144.795 25.3309C144.939 25.4269 145.023 25.6669 145.047 26.0509C145.047 26.2669 145.047 26.7829 145.047 27.5989C145.047 28.9669 144.963 29.7109 144.795 29.8309C144.699 29.8789 144.351 29.9029 143.751 29.9029C143.151 29.9029 142.803 29.8789 142.707 29.8309C142.539 29.7109 142.455 29.5549 142.455 29.3629C142.455 28.6189 142.107 28.0789 141.411 27.7429C140.835 27.4549 140.055 27.3109 139.071 27.3109C138.135 27.3109 137.403 27.4189 136.875 27.6349C136.251 27.8989 135.939 28.3429 135.939 28.9669C135.939 29.0629 135.963 29.1709 136.011 29.2909C136.083 29.6029 136.347 29.8669 136.803 30.0829C137.139 30.2749 137.991 30.5029 139.359 30.7669C140.607 30.9829 141.483 31.1629 141.987 31.3069C143.427 31.8109 144.519 32.6029 145.263 33.6829C145.599 34.2349 145.839 34.7749 145.983 35.3029C146.031 35.5429 146.055 35.9029 146.055 36.3829C146.055 36.8869 146.031 37.2589 145.983 37.4989C145.671 39.1789 144.759 40.3669 143.247 41.0629C142.599 41.3749 141.795 41.5909 140.835 41.7109C140.667 41.7349 140.187 41.7469 139.395 41.7469C138.531 41.7469 137.763 41.6749 137.091 41.5309C136.659 41.4109 136.239 41.2549 135.831 41.0629L135.435 40.8829L134.571 41.3149L133.671 41.7829H133.311C133.023 41.7829 132.843 41.7589 132.771 41.7109C132.627 41.6389 132.543 41.4229 132.519 41.0629C132.519 40.8229 132.519 40.1389 132.519 39.0109C132.519 37.3549 132.591 36.4669 132.735 36.3469C132.855 36.2749 133.203 36.2389 133.779 36.2389C134.403 36.2389 134.763 36.2629 134.859 36.3109C134.931 36.3589 135.051 36.5749 135.219 36.9589C135.675 38.2789 136.563 39.0949 137.883 39.4069C138.963 39.6949 140.067 39.6829 141.195 39.3709C142.035 39.0829 142.515 38.5909 142.635 37.8949C142.779 37.0309 142.335 36.3829 141.303 35.9509C140.919 35.7829 140.175 35.6029 139.071 35.4109C137.967 35.2189 137.355 35.0989 137.235 35.0509C134.979 34.5229 133.503 33.4429 132.807 31.8109C132.735 31.6189 132.675 31.4269 132.627 31.2349C132.579 31.0189 132.555 30.6829 132.555 30.2269C132.555 29.7709 132.567 29.4709 132.591 29.3269C132.903 27.8149 133.731 26.7229 135.075 26.0509C135.891 25.6189 136.875 25.3669 138.027 25.2949ZM152.179 16.7269C154.579 16.6309 155.755 16.5829 155.707 16.5829H155.923V22.1989V27.8509L156.139 27.6349C156.955 26.8189 157.903 26.2309 158.983 25.8709C159.631 25.6549 160.183 25.5109 160.639 25.4389C161.239 25.3429 162.067 25.3309 163.123 25.4029C163.219 25.4269 163.303 25.4389 163.375 25.4389C165.223 25.6549 166.471 26.4349 167.119 27.7789C167.263 28.0669 167.395 28.5109 167.515 29.1109C167.563 29.3749 167.599 31.0909 167.623 34.2589V38.9749H168.883H170.107V40.2709V41.5669H169.783C169.807 41.5669 168.979 41.5429 167.299 41.4949C165.859 41.4709 164.419 41.4709 162.979 41.4949L160.459 41.5669H160.135V40.2709V38.9749H161.395H162.619V34.4749C162.619 31.3549 162.607 29.7229 162.583 29.5789C162.463 28.3549 161.947 27.6829 161.035 27.5629C160.867 27.5629 160.675 27.5629 160.459 27.5629C159.307 27.6349 158.323 28.0789 157.507 28.8949C156.931 29.4709 156.547 30.1069 156.355 30.8029C156.211 31.2109 156.139 32.2429 156.139 33.8989C156.139 34.1869 156.139 34.6909 156.139 35.4109V38.9749H157.399H158.623V40.2709V41.5669H158.299L155.779 41.4949C154.339 41.4709 152.899 41.4709 151.459 41.4949C149.779 41.5429 148.951 41.5669 148.975 41.5669H148.651V40.2709V38.9749H149.911H151.135V29.6149C151.135 23.3749 151.111 20.1949 151.063 20.0749C150.991 19.8349 150.835 19.6789 150.595 19.6069C150.259 19.5109 149.767 19.4629 149.119 19.4629H148.651V18.1669V16.8709H148.759C148.639 16.8709 149.779 16.8229 152.179 16.7269ZM171.427 26.8789V25.5829H171.715L173.911 25.6549C175.207 25.6789 176.587 25.6789 178.051 25.6549L180.571 25.5829H180.895V26.8789V28.1749H180.103C179.599 28.1749 179.347 28.1989 179.347 28.2469L181.003 31.9549C182.059 34.3309 182.611 35.5189 182.659 35.5189L185.863 28.2469C185.863 28.1989 185.611 28.1749 185.107 28.1749H184.315V26.8789V25.5829H184.567L186.511 25.6549C187.615 25.6789 188.635 25.6789 189.571 25.6549C190.603 25.6069 191.131 25.5829 191.155 25.5829H191.371V26.8789V28.1749H190.039H188.707L185.251 36.0949C182.755 41.6629 181.507 44.4589 181.507 44.4829C180.571 46.3309 179.239 47.5909 177.511 48.2629C176.191 48.8389 174.979 48.9469 173.875 48.5869C172.651 48.1549 171.847 47.3269 171.463 46.1029C171.319 45.6709 171.259 45.2389 171.283 44.8069C171.307 44.1829 171.535 43.6429 171.967 43.1869C172.279 42.8989 172.639 42.6949 173.047 42.5749C173.263 42.5029 173.515 42.4669 173.803 42.4669C174.091 42.4669 174.343 42.5029 174.559 42.5749C174.967 42.6949 175.327 42.8989 175.639 43.1869C176.023 43.6189 176.251 44.1349 176.323 44.7349V44.9869H175.099H173.875V45.2029C173.947 45.8989 174.259 46.3429 174.811 46.5349C175.267 46.6789 175.891 46.5829 176.683 46.2469C177.643 45.7909 178.339 45.1189 178.771 44.2309L179.959 41.5669C179.959 41.5429 178.975 39.2989 177.007 34.8349L174.091 28.1749H172.759H171.427V26.8789ZM197.146 16.7269C199.546 16.6309 200.722 16.5829 200.674 16.5829H200.89V27.7789V38.9749H202.15H203.374V40.2709V41.5669H203.05L200.602 41.4949C199.186 41.4709 197.782 41.4709 196.39 41.4949L193.942 41.5669H193.618V40.2709V38.9749H194.878H196.102V29.6149C196.102 23.3749 196.078 20.1949 196.03 20.0749C195.958 19.8349 195.802 19.6789 195.562 19.6069C195.226 19.5109 194.734 19.4629 194.086 19.4629H193.618V18.1669V16.8709H193.726C193.606 16.8709 194.746 16.8229 197.146 16.7269ZM204.79 26.8789V25.5829H205.078L207.274 25.6549C208.57 25.6789 209.95 25.6789 211.414 25.6549L213.934 25.5829H214.258V26.8789V28.1749H213.466C212.962 28.1749 212.71 28.1989 212.71 28.2469L214.366 31.9549C215.422 34.3309 215.974 35.5189 216.022 35.5189L219.226 28.2469C219.226 28.1989 218.974 28.1749 218.47 28.1749H217.678V26.8789V25.5829H217.93L219.874 25.6549C220.978 25.6789 221.998 25.6789 222.934 25.6549C223.966 25.6069 224.494 25.5829 224.518 25.5829H224.734V26.8789V28.1749H223.402H222.07L218.614 36.0949C216.118 41.6629 214.87 44.4589 214.87 44.4829C213.934 46.3309 212.602 47.5909 210.874 48.2629C209.554 48.8389 208.342 48.9469 207.238 48.5869C206.014 48.1549 205.21 47.3269 204.826 46.1029C204.682 45.6709 204.622 45.2389 204.646 44.8069C204.67 44.1829 204.898 43.6429 205.33 43.1869C205.642 42.8989 206.002 42.6949 206.41 42.5749C206.626 42.5029 206.878 42.4669 207.166 42.4669C207.454 42.4669 207.706 42.5029 207.922 42.5749C208.33 42.6949 208.69 42.8989 209.002 43.1869C209.386 43.6189 209.614 44.1349 209.686 44.7349V44.9869H208.462H207.238V45.2029C207.31 45.8989 207.622 46.3429 208.174 46.5349C208.63 46.6789 209.254 46.5829 210.046 46.2469C211.006 45.7909 211.702 45.1189 212.134 44.2309L213.322 41.5669C213.322 41.5429 212.338 39.2989 210.37 34.8349L207.454 28.1749H206.122H204.79V26.8789ZM233.821 25.2949L236.773 25.3309C239.917 25.6909 241.921 26.8789 242.785 28.8949C242.881 29.1109 242.953 29.3269 243.001 29.5429L243.109 29.9389L243.145 34.2589C243.145 37.0669 243.169 38.5189 243.217 38.6149C243.409 38.8069 243.925 38.9269 244.765 38.9749C245.149 38.9749 245.425 39.0229 245.593 39.1189C245.737 39.2629 245.809 39.6469 245.809 40.2709C245.809 40.8949 245.725 41.2789 245.557 41.4229C245.317 41.5189 244.549 41.5669 243.253 41.5669C241.813 41.5429 240.865 41.4589 240.409 41.3149C239.665 41.0749 239.185 40.7029 238.969 40.1989C238.873 40.0069 238.825 39.8989 238.825 39.8749C238.825 39.8509 238.717 39.9109 238.501 40.0549C237.445 40.8949 236.029 41.4469 234.253 41.7109C233.317 41.8069 232.585 41.8189 232.057 41.7469C229.897 41.5069 228.373 40.6189 227.485 39.0829C227.269 38.7229 227.113 38.3509 227.017 37.9669C226.945 37.7029 226.909 37.3669 226.909 36.9589C226.909 36.3829 227.005 35.8909 227.197 35.4829C227.485 34.9069 227.881 34.4149 228.385 34.0069C229.225 33.3589 230.293 32.8549 231.589 32.4949C233.173 32.0149 235.057 31.7269 237.241 31.6309L238.141 31.5949V30.9469L238.105 30.0109V29.9749C237.961 28.9669 237.469 28.2589 236.629 27.8509C236.101 27.5869 235.417 27.4549 234.577 27.4549C233.593 27.4549 233.077 27.4789 233.029 27.5269L233.137 27.7429C233.329 28.0789 233.413 28.5109 233.389 29.0389C233.389 29.4229 233.365 29.6989 233.317 29.8669C233.173 30.2989 232.957 30.6589 232.669 30.9469C232.357 31.2589 231.985 31.4869 231.553 31.6309C231.361 31.6789 231.085 31.7029 230.725 31.7029C230.365 31.7029 230.101 31.6789 229.933 31.6309C229.477 31.4869 229.093 31.2589 228.781 30.9469C228.493 30.6589 228.277 30.2989 228.133 29.8669C228.085 29.6989 228.061 29.4229 228.061 29.0389C228.061 28.6549 228.085 28.3789 228.133 28.2109C228.493 26.8909 229.657 26.0149 231.625 25.5829C232.273 25.4389 233.005 25.3429 233.821 25.2949ZM238.141 35.4829C238.141 34.2349 238.129 33.6109 238.105 33.6109C238.081 33.6109 238.021 33.6229 237.925 33.6469C236.509 33.7429 235.273 33.9949 234.217 34.4029C233.089 34.8589 232.381 35.4949 232.093 36.3109C231.973 36.6469 231.961 37.0789 232.057 37.6069C232.297 38.5669 232.849 39.1909 233.713 39.4789C233.761 39.5029 233.821 39.5269 233.893 39.5509C234.781 39.6949 235.717 39.5149 236.701 39.0109C236.773 38.9869 236.845 38.9509 236.917 38.9029C237.373 38.6149 237.697 38.2909 237.889 37.9309C238.033 37.6429 238.117 37.1629 238.141 36.4909V35.4829ZM102.794 64.2949L105.746 64.3309C108.89 64.6909 110.894 65.8789 111.758 67.8949C111.854 68.1109 111.926 68.3269 111.974 68.5429L112.082 68.9389L112.118 73.2589C112.118 76.0669 112.142 77.5189 112.19 77.6149C112.382 77.8069 112.898 77.9269 113.738 77.9749C114.122 77.9749 114.398 78.0229 114.566 78.1189C114.71 78.2629 114.782 78.6469 114.782 79.2709C114.782 79.8949 114.698 80.2789 114.53 80.4229C114.29 80.5189 113.522 80.5669 112.226 80.5669C110.786 80.5429 109.838 80.4589 109.382 80.3149C108.638 80.0749 108.158 79.7029 107.942 79.1989C107.846 79.0069 107.798 78.8989 107.798 78.8749C107.798 78.8509 107.69 78.9109 107.474 79.0549C106.418 79.8949 105.002 80.4469 103.226 80.7109C102.29 80.8069 101.558 80.8189 101.03 80.7469C98.87 80.5069 97.346 79.6189 96.458 78.0829C96.242 77.7229 96.086 77.3509 95.99 76.9669C95.918 76.7029 95.882 76.3669 95.882 75.9589C95.882 75.3829 95.978 74.8909 96.17 74.4829C96.458 73.9069 96.854 73.4149 97.358 73.0069C98.198 72.3589 99.266 71.8549 100.562 71.4949C102.146 71.0149 104.03 70.7269 106.214 70.6309L107.114 70.5949V69.9469L107.078 69.0109V68.9749C106.934 67.9669 106.442 67.2589 105.602 66.8509C105.074 66.5869 104.39 66.4549 103.55 66.4549C102.566 66.4549 102.05 66.4789 102.002 66.5269L102.11 66.7429C102.302 67.0789 102.386 67.5109 102.362 68.0389C102.362 68.4229 102.338 68.6989 102.29 68.8669C102.146 69.2989 101.93 69.6589 101.642 69.9469C101.33 70.2589 100.958 70.4869 100.526 70.6309C100.334 70.6789 100.058 70.7029 99.698 70.7029C99.338 70.7029 99.074 70.6789 98.906 70.6309C98.45 70.4869 98.066 70.2589 97.754 69.9469C97.466 69.6589 97.25 69.2989 97.106 68.8669C97.058 68.6989 97.034 68.4229 97.034 68.0389C97.034 67.6549 97.058 67.3789 97.106 67.2109C97.466 65.8909 98.63 65.0149 100.598 64.5829C101.246 64.4389 101.978 64.3429 102.794 64.2949ZM107.114 74.4829C107.114 73.2349 107.102 72.6109 107.078 72.6109C107.054 72.6109 106.994 72.6229 106.898 72.6469C105.482 72.7429 104.246 72.9949 103.19 73.4029C102.062 73.8589 101.354 74.4949 101.066 75.3109C100.946 75.6469 100.934 76.0789 101.03 76.6069C101.27 77.5669 101.822 78.1909 102.686 78.4789C102.734 78.5029 102.794 78.5269 102.866 78.5509C103.754 78.6949 104.69 78.5149 105.674 78.0109C105.746 77.9869 105.818 77.9509 105.89 77.9029C106.346 77.6149 106.67 77.2909 106.862 76.9309C107.006 76.6429 107.09 76.1629 107.114 75.4909V74.4829ZM119.915 55.5829C119.963 55.5589 120.179 55.5469 120.563 55.5469C120.971 55.5949 121.235 55.6309 121.355 55.6549C122.291 55.9429 122.963 56.4949 123.371 57.3109C123.587 57.7669 123.695 58.2109 123.695 58.6429C123.695 59.0989 123.587 59.5429 123.371 59.9749C122.963 60.8149 122.291 61.3789 121.355 61.6669C121.139 61.7149 120.839 61.7389 120.455 61.7389C120.047 61.7389 119.747 61.7149 119.555 61.6669C118.595 61.3789 117.911 60.8149 117.503 59.9749C117.311 59.5909 117.215 59.1469 117.215 58.6429C117.215 58.3069 117.227 58.0669 117.251 57.9229C117.371 57.4909 117.587 57.0829 117.899 56.6989C118.403 56.0989 119.075 55.7269 119.915 55.5829ZM119.663 64.5109C122.063 64.4149 123.215 64.3669 123.119 64.3669H123.335V71.1709V77.9749H124.451H125.567V79.2709V80.5669H125.243L122.939 80.4949C121.619 80.4709 120.251 80.4709 118.835 80.4949L116.387 80.5669H116.063V79.2709V77.9749H117.323H118.547V73.0429C118.547 69.7069 118.535 67.9909 118.511 67.8949C118.415 67.6069 118.259 67.4389 118.043 67.3909C117.707 67.2949 117.227 67.2469 116.603 67.2469H116.171V65.9509V64.6549H116.279L119.663 64.5109ZM130.511 64.5109C132.767 64.4149 133.871 64.3669 133.823 64.3669H134.039V65.3029L134.075 66.2389L134.183 66.0589C134.639 65.3869 135.251 64.9069 136.019 64.6189C137.195 64.1869 138.491 64.2589 139.908 64.8349C140.22 64.9309 140.496 65.0629 140.736 65.2309C141.552 65.7829 142.032 66.4669 142.176 67.2829C142.272 67.7149 142.248 68.1229 142.103 68.5069C141.912 69.2509 141.48 69.7909 140.808 70.1269C140.4 70.2949 139.991 70.3789 139.584 70.3789C139.128 70.3789 138.72 70.2949 138.359 70.1269C137.664 69.7909 137.208 69.2509 136.992 68.5069C136.967 68.3869 136.955 68.1349 136.955 67.7509C136.955 67.3669 136.979 67.0909 137.027 66.9229C137.123 66.7069 137.148 66.5989 137.099 66.5989C137.028 66.5269 136.812 66.5989 136.451 66.8149C136.092 66.9829 135.768 67.2709 135.48 67.6789C135.024 68.3989 134.7 69.4549 134.508 70.8469C134.484 71.0869 134.459 72.3589 134.435 74.6629V77.9749H135.984H137.568V79.2709V80.5669H137.172L134.435 80.4949C132.851 80.4709 131.351 80.4709 129.935 80.4949C128.327 80.5429 127.511 80.5669 127.487 80.5669H127.163V79.2709V77.9749H128.423H129.647V73.0069C129.647 69.6949 129.623 67.9789 129.575 67.8589C129.503 67.6189 129.347 67.4629 129.107 67.3909C128.771 67.2949 128.279 67.2469 127.631 67.2469H127.163V65.9509V64.6549H127.271L130.511 64.5109ZM148.138 55.7269C150.538 55.6309 151.714 55.5829 151.666 55.5829H151.882V66.7789V77.9749H153.142H154.366V79.2709V80.5669H154.042L151.594 80.4949C150.178 80.4709 148.774 80.4709 147.382 80.4949L144.934 80.5669H144.61V79.2709V77.9749H145.87H147.094V68.6149C147.094 62.3749 147.07 59.1949 147.022 59.0749C146.95 58.8349 146.794 58.6789 146.554 58.6069C146.218 58.5109 145.726 58.4629 145.078 58.4629H144.61V57.1669V55.8709H144.718C144.598 55.8709 145.738 55.8229 148.138 55.7269ZM159.958 55.5829C160.006 55.5589 160.222 55.5469 160.606 55.5469C161.014 55.5949 161.278 55.6309 161.398 55.6549C162.334 55.9429 163.006 56.4949 163.414 57.3109C163.63 57.7669 163.738 58.2109 163.738 58.6429C163.738 59.0989 163.63 59.5429 163.414 59.9749C163.006 60.8149 162.334 61.3789 161.398 61.6669C161.182 61.7149 160.882 61.7389 160.498 61.7389C160.09 61.7389 159.79 61.7149 159.598 61.6669C158.638 61.3789 157.954 60.8149 157.546 59.9749C157.354 59.5909 157.258 59.1469 157.258 58.6429C157.258 58.3069 157.27 58.0669 157.294 57.9229C157.414 57.4909 157.63 57.0829 157.942 56.6989C158.446 56.0989 159.118 55.7269 159.958 55.5829ZM159.706 64.5109C162.106 64.4149 163.258 64.3669 163.162 64.3669H163.378V71.1709V77.9749H164.494H165.61V79.2709V80.5669H165.286L162.982 80.4949C161.662 80.4709 160.294 80.4709 158.878 80.4949L156.43 80.5669H156.106V79.2709V77.9749H157.366H158.59V73.0429C158.59 69.7069 158.578 67.9909 158.554 67.8949C158.458 67.6069 158.302 67.4389 158.086 67.3909C157.75 67.2949 157.27 67.2469 156.646 67.2469H156.214V65.9509V64.6549H156.322L159.706 64.5109ZM170.95 64.5109C173.302 64.4149 174.442 64.3669 174.37 64.3669H174.586V65.6989V67.0309L174.874 66.7429C175.474 66.1189 176.194 65.6149 177.034 65.2309C177.73 64.8469 178.546 64.5829 179.482 64.4389C180.082 64.3429 180.91 64.3309 181.966 64.4029C182.062 64.4269 182.146 64.4389 182.218 64.4389C184.066 64.6549 185.314 65.4349 185.962 66.7789C186.106 67.0669 186.238 67.5109 186.358 68.1109C186.406 68.3749 186.442 70.0909 186.466 73.2589V77.9749H187.726H188.95V79.2709V80.5669H188.626L186.106 80.4949C184.666 80.4709 183.226 80.4709 181.786 80.4949C180.106 80.5429 179.278 80.5669 179.302 80.5669H178.978V79.2709V77.9749H180.238H181.462V73.4749C181.462 70.3549 181.45 68.7229 181.426 68.5789C181.306 67.3549 180.79 66.6829 179.878 66.5629C179.71 66.5629 179.518 66.5629 179.302 66.5629C178.15 66.6349 177.166 67.0789 176.35 67.8949C175.774 68.4709 175.39 69.1069 175.198 69.8029C175.054 70.2109 174.982 71.2429 174.982 72.8989C174.982 73.1869 174.982 73.6909 174.982 74.4109V77.9749H176.242H177.466V79.2709V80.5669H177.142L174.622 80.4949C173.182 80.4709 171.742 80.4709 170.302 80.4949C168.622 80.5429 167.794 80.5669 167.818 80.5669H167.494V79.2709V77.9749H168.754H169.978V73.0069C169.978 69.6949 169.954 67.9789 169.906 67.8589C169.834 67.6189 169.678 67.4629 169.438 67.3909C169.102 67.2949 168.61 67.2469 167.962 67.2469H167.494V65.9509V64.6549H167.602C167.482 64.6549 168.598 64.6069 170.95 64.5109ZM198.515 64.2949L200.927 64.3309C202.631 64.5709 203.999 65.1709 205.031 66.1309C206.231 67.3309 206.915 68.9629 207.083 71.0269C207.155 71.9149 207.047 72.4549 206.759 72.6469C206.663 72.6949 204.839 72.7189 201.287 72.7189H195.995V73.4389C196.067 75.1189 196.403 76.2949 197.003 76.9669C197.051 77.0149 197.111 77.0749 197.183 77.1469C197.879 77.8429 198.935 78.2629 200.351 78.4069C200.903 78.4549 201.359 78.4429 201.719 78.3709C203.015 78.1789 203.927 77.5309 204.455 76.4269C204.479 76.3549 204.503 76.2949 204.527 76.2469C204.647 75.9349 204.839 75.7669 205.103 75.7429C205.223 75.7189 205.463 75.7069 205.823 75.7069C206.351 75.7069 206.663 75.7309 206.759 75.7789C207.047 75.9229 207.155 76.1749 207.083 76.5349C206.939 77.0389 206.699 77.5069 206.363 77.9389C205.283 79.4269 203.591 80.3509 201.287 80.7109C200.615 80.8069 199.715 80.8189 198.587 80.7469C198.515 80.7229 198.443 80.7109 198.371 80.7109C194.483 80.2069 191.999 78.3829 190.919 75.2389C190.775 74.7589 190.655 74.2549 190.559 73.7269C190.463 73.0549 190.463 72.2629 190.559 71.3509C190.559 71.2789 190.559 71.2189 190.559 71.1709C190.823 69.6109 191.387 68.3029 192.251 67.2469C192.563 66.8149 193.019 66.3829 193.619 65.9509C194.939 64.9909 196.571 64.4389 198.515 64.2949ZM200.135 66.5269C199.775 66.4549 199.319 66.4429 198.767 66.4909C197.687 66.6829 196.931 67.2229 196.499 68.1109C196.259 68.6149 196.103 69.3469 196.031 70.3069V70.6309H199.379H202.763L202.727 70.4509C202.487 68.2189 201.623 66.9109 200.135 66.5269ZM215.195 64.2949H217.463C218.279 64.3669 218.963 64.5109 219.515 64.7269L219.767 64.7989L220.415 64.5469L221.063 64.2589H221.459C221.723 64.2589 221.891 64.2829 221.963 64.3309C222.107 64.4269 222.191 64.6669 222.215 65.0509C222.215 65.2669 222.215 65.7829 222.215 66.5989C222.215 67.9669 222.131 68.7109 221.963 68.8309C221.867 68.8789 221.519 68.9029 220.919 68.9029C220.319 68.9029 219.971 68.8789 219.875 68.8309C219.707 68.7109 219.623 68.5549 219.623 68.3629C219.623 67.6189 219.275 67.0789 218.579 66.7429C218.003 66.4549 217.223 66.3109 216.239 66.3109C215.303 66.3109 214.571 66.4189 214.043 66.6349C213.419 66.8989 213.107 67.3429 213.107 67.9669C213.107 68.0629 213.131 68.1709 213.179 68.2909C213.251 68.6029 213.515 68.8669 213.971 69.0829C214.307 69.2749 215.159 69.5029 216.527 69.7669C217.775 69.9829 218.651 70.1629 219.155 70.3069C220.595 70.8109 221.687 71.6029 222.431 72.6829C222.767 73.2349 223.007 73.7749 223.151 74.3029C223.199 74.5429 223.223 74.9029 223.223 75.3829C223.223 75.8869 223.199 76.2589 223.151 76.4989C222.839 78.1789 221.927 79.3669 220.415 80.0629C219.767 80.3749 218.963 80.5909 218.003 80.7109C217.835 80.7349 217.355 80.7469 216.563 80.7469C215.699 80.7469 214.931 80.6749 214.259 80.5309C213.827 80.4109 213.407 80.2549 212.999 80.0629L212.603 79.8829L211.739 80.3149L210.839 80.7829H210.479C210.191 80.7829 210.011 80.7589 209.939 80.7109C209.795 80.6389 209.711 80.4229 209.687 80.0629C209.687 79.8229 209.687 79.1389 209.687 78.0109C209.687 76.3549 209.759 75.4669 209.903 75.3469C210.023 75.2749 210.371 75.2389 210.947 75.2389C211.571 75.2389 211.931 75.2629 212.027 75.3109C212.099 75.3589 212.219 75.5749 212.387 75.9589C212.843 77.2789 213.731 78.0949 215.051 78.4069C216.131 78.6949 217.235 78.6829 218.363 78.3709C219.203 78.0829 219.683 77.5909 219.803 76.8949C219.947 76.0309 219.503 75.3829 218.471 74.9509C218.087 74.7829 217.343 74.6029 216.239 74.4109C215.135 74.2189 214.523 74.0989 214.403 74.0509C212.147 73.5229 210.671 72.4429 209.975 70.8109C209.903 70.6189 209.843 70.4269 209.795 70.2349C209.747 70.0189 209.723 69.6829 209.723 69.2269C209.723 68.7709 209.735 68.4709 209.759 68.3269C210.071 66.8149 210.899 65.7229 212.243 65.0509C213.059 64.6189 214.043 64.3669 215.195 64.2949Z" fill="#3C38F3"/>
</svg>
